name C:\Users\u0101727\Documents\MyRepositories\upper-imu-dc\OpenSim\subject0\MA\MA_Splines\angle_in_n3_dof9_1.mot
datacolumns 10
datarows 47
range 100.01000000 100.47000000
endheader 
time	clav_prot	clav_elev	scapula_abduction	scapula_elevation	scapula_upward_rot	scapula_winging	plane_elv	shoulder_elv	axial_rot	
        100.01000000	        -30.62585626	         -7.65248351	         -9.79969714	         -0.36668095	          8.23102828	          6.73993887	         15.98623168	         47.35717561	         13.30510256	
        100.02000000	        -16.90593547	         -7.65248351	         -9.79969714	         -0.36668095	          8.23102828	          6.73993887	         15.98623168	         47.35717561	         13.30510256	
        100.03000000	        -44.34577705	          4.60560848	         -9.79969714	         -0.36668095	          8.23102828	          6.73993887	         15.98623168	         47.35717561	         13.30510256	
        100.04000000	        -30.62585626	          4.60560848	         -9.79969714	         -0.36668095	          8.23102828	          6.73993887	         15.98623168	         47.35717561	         13.30510256	
        100.05000000	        -16.90593547	          4.60560848	         -9.79969714	         -0.36668095	          8.23102828	          6.73993887	         15.98623168	         47.35717561	         13.30510256	
        100.06000000	        -44.34577705	         16.86370047	         -9.79969714	         -0.36668095	          8.23102828	          6.73993887	         15.98623168	         47.35717561	         13.30510256	
        100.07000000	        -30.62585626	         16.86370047	         -9.79969714	         -0.36668095	          8.23102828	          6.73993887	         15.98623168	         47.35717561	         13.30510256	
        100.08000000	        -16.90593547	         16.86370047	         -9.79969714	         -0.36668095	          8.23102828	          6.73993887	         15.98623168	         47.35717561	         13.30510256	
        100.09000000	        -44.34577705	         -7.65248351	         11.28790885	         -0.36668095	          8.23102828	          6.73993887	         15.98623168	         47.35717561	         13.30510256	
        100.10000000	        -30.62585626	         -7.65248351	         11.28790885	         -0.36668095	          8.23102828	          6.73993887	         15.98623168	         47.35717561	         13.30510256	
        100.11000000	        -16.90593547	         -7.65248351	         11.28790885	         -0.36668095	          8.23102828	          6.73993887	         15.98623168	         47.35717561	         13.30510256	
        100.12000000	        -44.34577705	          4.60560848	         11.28790885	         -0.36668095	          8.23102828	          6.73993887	         15.98623168	         47.35717561	         13.30510256	
        100.13000000	        -30.62585626	          4.60560848	         11.28790885	         -0.36668095	          8.23102828	          6.73993887	         15.98623168	         47.35717561	         13.30510256	
        100.14000000	        -16.90593547	          4.60560848	         11.28790885	         -0.36668095	          8.23102828	          6.73993887	         15.98623168	         47.35717561	         13.30510256	
        100.15000000	        -44.34577705	         16.86370047	         11.28790885	         -0.36668095	          8.23102828	          6.73993887	         15.98623168	         47.35717561	         13.30510256	
        100.16000000	        -30.62585626	         16.86370047	         11.28790885	         -0.36668095	          8.23102828	          6.73993887	         15.98623168	         47.35717561	         13.30510256	
        100.17000000	        -16.90593547	         16.86370047	         11.28790885	         -0.36668095	          8.23102828	          6.73993887	         15.98623168	         47.35717561	         13.30510256	
        100.18000000	        -44.34577705	         -7.65248351	        -30.88730313	          7.08700750	          8.23102828	          6.73993887	         15.98623168	         47.35717561	         13.30510256	
        100.19000000	        -30.62585626	         -7.65248351	        -30.88730313	          7.08700750	          8.23102828	          6.73993887	         15.98623168	         47.35717561	         13.30510256	
        100.20000000	        -16.90593547	         -7.65248351	        -30.88730313	          7.08700750	          8.23102828	          6.73993887	         15.98623168	         47.35717561	         13.30510256	
        100.21000000	        -44.34577705	          4.60560848	        -30.88730313	          7.08700750	          8.23102828	          6.73993887	         15.98623168	         47.35717561	         13.30510256	
        100.22000000	        -30.62585626	          4.60560848	        -30.88730313	          7.08700750	          8.23102828	          6.73993887	         15.98623168	         47.35717561	         13.30510256	
        100.23000000	        -16.90593547	          4.60560848	        -30.88730313	          7.08700750	          8.23102828	          6.73993887	         15.98623168	         47.35717561	         13.30510256	
        100.24000000	        -44.34577705	         16.86370047	        -30.88730313	          7.08700750	          8.23102828	          6.73993887	         15.98623168	         47.35717561	         13.30510256	
        100.25000000	        -30.62585626	         16.86370047	        -30.88730313	          7.08700750	          8.23102828	          6.73993887	         15.98623168	         47.35717561	         13.30510256	
        100.26000000	        -16.90593547	         16.86370047	        -30.88730313	          7.08700750	          8.23102828	          6.73993887	         15.98623168	         47.35717561	         13.30510256	
        100.27000000	        -44.34577705	         -7.65248351	         -9.79969714	          7.08700750	          8.23102828	          6.73993887	         15.98623168	         47.35717561	         13.30510256	
        100.28000000	        -30.62585626	         -7.65248351	         -9.79969714	          7.08700750	          8.23102828	          6.73993887	         15.98623168	         47.35717561	         13.30510256	
        100.29000000	        -16.90593547	         -7.65248351	         -9.79969714	          7.08700750	          8.23102828	          6.73993887	         15.98623168	         47.35717561	         13.30510256	
        100.30000000	        -44.34577705	          4.60560848	         -9.79969714	          7.08700750	          8.23102828	          6.73993887	         15.98623168	         47.35717561	         13.30510256	
        100.31000000	        -30.62585626	          4.60560848	         -9.79969714	          7.08700750	          8.23102828	          6.73993887	         15.98623168	         47.35717561	         13.30510256	
        100.32000000	        -16.90593547	          4.60560848	         -9.79969714	          7.08700750	          8.23102828	          6.73993887	         15.98623168	         47.35717561	         13.30510256	
        100.33000000	        -44.34577705	         16.86370047	         -9.79969714	          7.08700750	          8.23102828	          6.73993887	         15.98623168	         47.35717561	         13.30510256	
        100.34000000	        -30.62585626	         16.86370047	         -9.79969714	          7.08700750	          8.23102828	          6.73993887	         15.98623168	         47.35717561	         13.30510256	
        100.35000000	        -16.90593547	         16.86370047	         -9.79969714	          7.08700750	          8.23102828	          6.73993887	         15.98623168	         47.35717561	         13.30510256	
        100.36000000	        -44.34577705	         -7.65248351	         11.28790885	          7.08700750	          8.23102828	          6.73993887	         15.98623168	         47.35717561	         13.30510256	
        100.37000000	        -30.62585626	         -7.65248351	         11.28790885	          7.08700750	          8.23102828	          6.73993887	         15.98623168	         47.35717561	         13.30510256	
        100.38000000	        -16.90593547	         -7.65248351	         11.28790885	          7.08700750	          8.23102828	          6.73993887	         15.98623168	         47.35717561	         13.30510256	
        100.39000000	        -44.34577705	          4.60560848	         11.28790885	          7.08700750	          8.23102828	          6.73993887	         15.98623168	         47.35717561	         13.30510256	
        100.40000000	        -30.62585626	          4.60560848	         11.28790885	          7.08700750	          8.23102828	          6.73993887	         15.98623168	         47.35717561	         13.30510256	
        100.41000000	        -16.90593547	          4.60560848	         11.28790885	          7.08700750	          8.23102828	          6.73993887	         15.98623168	         47.35717561	         13.30510256	
        100.42000000	        -44.34577705	         16.86370047	         11.28790885	          7.08700750	          8.23102828	          6.73993887	         15.98623168	         47.35717561	         13.30510256	
        100.43000000	        -30.62585626	         16.86370047	         11.28790885	          7.08700750	          8.23102828	          6.73993887	         15.98623168	         47.35717561	         13.30510256	
        100.44000000	        -16.90593547	         16.86370047	         11.28790885	          7.08700750	          8.23102828	          6.73993887	         15.98623168	         47.35717561	         13.30510256	
        100.45000000	        -44.34577705	         -7.65248351	        -30.88730313	         -7.82036939	         46.86245639	          6.73993887	         15.98623168	         47.35717561	         13.30510256	
        100.46000000	        -30.62585626	         -7.65248351	        -30.88730313	         -7.82036939	         46.86245639	          6.73993887	         15.98623168	         47.35717561	         13.30510256	
        100.47000000	        -16.90593547	         -7.65248351	        -30.88730313	         -7.82036939	         46.86245639	          6.73993887	         15.98623168	         47.35717561	         13.30510256	
